# xmcd
#
# Track frame offsets:
#	150
#	23538
#	39450
#	54236
#	77302
#	100635
#	111828
#	121947
#	140249
#
# Disc length: 2072 seconds
#
# Revision: 0
# Processed by: cddbd v1.5.1PL0 Copyright (c) Steve Scherf et al.
# Submitted via: dBpowerAMP V4.0
#
DISCID=64081609
DTITLE=Svet Boogie band - live at JVL Art Club
DYEAR=2005
DGENRE=Blues
TTITLE0=How Blue Can You Get?
TTITLE1=Baby, What U Want Me To Do?
TTITLE2=Big Fat Mama
TTITLE3=It Hurts Me Too
TTITLE4=Little Tia
TTITLE5=Love My Baby
TTITLE6=Hey Hey Blues
TTITLE7=Let Me Show You
TTITLE8=Poodle Boogie
EXTD=
EXTT0=
EXTT1=
EXTT2=
EXTT3=
EXTT4=
EXTT5=
EXTT6=
EXTT7=
EXTT8=
PLAYORDER=
